<?xml version="1.0" encoding="utf-8"?>
<svg version="1.1" xmlns:xlink="http://www.w3.org/1999/xlink" width="7px" height="11px" xmlns="http://www.w3.org/2000/svg">
  <g transform="matrix(1 0 0 1 -1097 -175 )">
    <path d="M 0 11  L 0 0.19299407986229625  L 1.5135174145869719 0.19299407986229625  L 1.5135174145869719 1.4473672586804371  C 1.5135174145869719 1.4473672586804371  1.6081032317662851 1.4473672586804371  1.6081032317662851 1.4473672586804371  C 1.7026977107382435 1.254384954647385  1.7973008444550094 1.0614114932699925  1.986489802398926 0.8684291892369407  C 2.175678760342843 0.6754468852038886  2.3648648145775897 0.48245870044536554  2.6486482585413027 0.2894763964123136  C 2.9324317025050157 0.09649409237926158  3.3108067146836797 0  3.7837791024956338 0  C 4.445940434155829 0  4.918915697485602 0.1929822896547501  5.486482585413029 0.48245575289347903  C 5.959454973224982 0.771929216132208  6.337829985403646 1.254393768546441  6.621613429367359 1.8333406950238986  C 6.905396873331072 2.412287621501357  7 3.184219770807149  7 4.052640103010129  C 7 4.921060435213107  6.905396873331072 5.596486745066999  6.621613429367359 6.271924787615227  C 6.337829985403646 6.850871714092685  5.959454973224982 7.33332743822956  5.486482585413029 7.7192920462956645  C 5.013510197601073 8.008765509534394  4.445940434155829 8.201747799189144  3.7837791024956338 8.201747799189144  C 3.3108067146836797 8.201747799189144  2.9324317025050157 8.105259594724505  2.6486482585413027 8.008768442707979  C 2.3648648145775897 7.815786138674926  2.0810842813708845 7.622812677297534  1.986489802398926 7.4298303732644815  C 1.7973008444550094 7.23684806923143  1.7026977107382435 7.043859884472907  1.6081032317662851 6.850877580439855  C 1.6081032317662851 6.850877580439855  1.5135174145869719 6.850877580439855  1.5135174145869719 6.850877580439855  L 1.5135174145869719 11  L 0 11  Z M 1.7027034829173944 2.6052728443296918  C 1.5135145249734776 3.0877285972231707  1.4189171634358626 3.5701843501166497  1.4189171634358626 4.052640103010129  C 1.4189171634358626 4.631587029487585  1.5135145249734776 5.114042753624462  1.7027034829173944 5.500007361690566  C 1.8918924408613111 5.88597196975667  2.081078495096058 6.271936563444472  2.364861939059771 6.4649188674775235  C 2.648645383023484 6.657901171510575  3.0270203952021477 6.850877580439855  3.499992783014102 6.850877580439855  C 3.972965170826056 6.850877580439855  4.351354616976516 6.754392330716252  4.635138060940228 6.4649188674775235  C 4.918921504903942 6.175445404238794  5.2027020381106475 5.88597196975667  5.297296517082605 5.500007361690566  C 5.486485475026523 5.114042753624462  5.486482585413029 4.631587029487585  5.486482585413029 4.052640103010129  C 5.486482585413029 3.5701843501166497  5.391890996054563 3.0877285972231707  5.297296517082605 2.6052728443296918  C 5.2027020381106475 2.1228170914362123  4.918921504903942 1.8333436425757852  4.635138060940228 1.6403613385427334  C 4.351354616976516 1.4473790345096813  3.972965170826056 1.2543879021992717  3.499992783014102 1.2543879021992717  C 3.0270203952021477 1.2543879021992717  2.648645383023484 1.3508878753040046  2.364861939059771 1.6403613385427334  C 2.081078495096058 1.8333436425757852  1.7972979618893525 2.2193082362635876  1.7027034829173944 2.6052728443296918  Z " fill-rule="nonzero" fill="#2c3b51" stroke="none" transform="matrix(1 0 0 1 1097 175 )" />
  </g>
</svg>