<?xml version="1.0" encoding="utf-8"?>
<svg version="1.1" xmlns:xlink="http://www.w3.org/1999/xlink" width="7px" height="8px" xmlns="http://www.w3.org/2000/svg">
  <g transform="matrix(1 0 0 1 -1034 -175 )">
    <path d="M 4.91892008924337 7.904770554875369  C 4.729730741191779 7.9047705548753155  4.256754516682612 8  3.689186458432137 8  C 2.932429066225777 8  2.270267835142051 7.809523682475268  1.702699776891576 7.523809177804985  C 1.1351317186411005 7.238094673134703  0.7567573922063608 6.761903850939688  0.4729733630811232 6.095236711219941  C 0.18918933395588558 5.523807701879376  0 4.761905326865297  0 4  C 0 3.2380946731347025  0.18918933395588558 2.4761922981206244  0.4729733630811232 1.904763288780059  C 0.7567573922063608 1.3333342794394933  1.2297264138104527 0.8571434856276635  1.702699776891576 0.47619082219501474  C 2.270267835142051 0.09523815876236601  2.837835837009708 0  3.5945932292160685 0  C 4.067566592297192 0  4.445948163924121 0.09523525658171997  4.8243268600273 0.19047342243988216  C 5.202705556130481 0.3809497541562065  5.581081348518504 0.5714231624044962  5.959460044621685 0.857137667074779  C 6.243244073746923 1.1428521717450617  6.527030964300203 1.6190458890249264  6.716220312351793 2.095236711219941  C 6.905409660403384 2.571427533414956  7 3.238103415155621  7 3.9047705548753684  C 7 3.9047705548753684  7 4.476190822195015  7 4.476190822195015  L 0.8513462799453982 4.476190822195015  L 0.8513462799453982 3.3333357553651033  C 0.8513462799453982 3.3333357553651033  5.486486681540561 3.3333357553651033  5.486486681540561 3.3333357553651033  C 5.486486681540561 2.9523830919324543  5.391896341943945 2.571424638330106  5.202706993892356 2.285710133659823  C 5.013517645840765 1.9999956289895406  4.824323984503553 1.714292775616619  4.540539955378315 1.5238164439002946  C 4.256755926253077 1.3333401121839703  3.8783786961031805 1.238099044145162  3.5 1.238099044145162  C 3.12162130389682 1.238099044145162  2.7432455115087966 1.3333401121839703  2.364866815405616 1.5238164439002946  C 1.9864881193024357 1.714292775616619  1.7972958957270975 2.000001447542425  1.6081065476755072 2.3809541109750736  C 1.418917199623917 2.761906774407722  1.3243196430265214 3.047627069247705  1.3243196430265214 3.4285797326803538  C 1.3243196430265214 3.4285797326803538  1.3243196430265214 4.285717399755132  1.3243196430265214 4.285717399755132  C 1.3243196430265214 4.761908221950147  1.418917199623917 5.238093225592278  1.6081065476755072 5.619045889024927  C 1.7972958957270975 5.999998552457575  2.0810827862803785 6.2857217565740005  2.364866815405616 6.4761980882903245  C 2.6486508445308536 6.666674420006649  3.12162130389682 6.761915488045457  3.5 6.761915488045457  C 3.7837840291252376 6.761915488045457  4.067570919678518 6.761909676588369  4.256760267730109 6.666671510730207  C 4.445949615781699 6.571433344872044  4.729732186001506 6.4762009975667665  4.8243268600273 6.285724665850442  C 5.013516208078891 6.095248334134118  5.10811231986656 5.9047661980565005  5.202706993892356 5.714289866340176  C 5.202706993892356 5.714289866340176  6.621627083135725 6.00000726609531  6.621627083135725 6.00000726609531  C 6.52703240910993 6.380959929527958  6.337837302962991 6.761909669492573  6.054053273837754 7.142862332925221  C 5.770269244712516 7.428576837595504  5.391893452324493 7.714294223159045  4.91892008924337 7.904770554875369  Z " fill-rule="nonzero" fill="#2c3b51" stroke="none" transform="matrix(1 0 0 1 1034 175 )" />
  </g>
</svg>