<?xml version="1.0" encoding="utf-8"?>
<svg version="1.1" xmlns:xlink="http://www.w3.org/1999/xlink" width="429px" height="264px" xmlns="http://www.w3.org/2000/svg">
  <g transform="matrix(1 0 0 1 -510 -100 )">
    <path d="M 429 16.279714235117737  C 429 16.279714235117737  428.92373886108396 247.7202715806558  428.92373886108396 247.7202715806558  C 428.92373886108396 256.61537610980827  424.23333333333335 264  415.70139567057294 264  C 415.70139567057294 264  10.839078044891357 264  10.839078044891357 264  C 6.801667610804239 264  0 256.7832086052693  0 247.7202715806558  C 0 247.7202715806558  0.07618219920744498 16.279714235117737  0.07618219920744498 16.279714235117737  C 0.07618219920744498 7.384609705965284  6.8778253316879265 0  10.915235765775044 0  C 10.915235765775044 0  415.77754770914714 0  415.77754770914714 0  C 425.425 0  429 7.216777210504237  429 16.279714235117737  Z " fill-rule="nonzero" fill="#f6f6f6" stroke="none" transform="matrix(1 0 0 1 510 100 )" />
  </g>
</svg>