<?xml version="1.0" encoding="utf-8"?>
<svg version="1.1" xmlns:xlink="http://www.w3.org/1999/xlink" width="8px" height="11px" xmlns="http://www.w3.org/2000/svg">
  <g transform="matrix(1 0 0 1 -1025 -175 )">
    <path d="M 2.909092350297992 10.805312757829581  C 2.389612139647562 10.902657865733792  1.9740248066643218 11  1.558440631951291 11  C 1.3506485445947753 11  1.0389620081768236 10.999994059976773  0.9350659644985658 10.90264895207256  C 0.831169920820308 10.80530384416835  0.623376254328688 10.805312757829581  0.5194802106504303 10.805312757829581  C 0.5194802106504303 10.805312757829581  0.9350659644985658 9.539823403195163  0.9350659644985658 9.539823403195163  C 1.2467541032741973 9.637168511099375  1.5584453848383213 9.637159597438146  1.7662374721948368 9.637159597438146  C 1.9740295595513522 9.637159597438146  2.1818200522910463 9.539826376833163  2.389612139647562 9.345136161024744  C 2.5974042270040774 9.15044594521632  2.701300262941477 8.95575277027545  2.909092350297992 8.566372338658605  C 2.909092350297992 8.566372338658605  3.116881263902582 8.079646806390324  3.116881263902582 8.079646806390324  L 0 0  L 1.7662374721948368 0  L 3.9480527715988525 6.132744677317208  L 4.051947228401147 6.132744677317208  L 6.233762527805164 0  L 8 0  C 8 0  4.467532982249283 9.053097870926884  4.467532982249283 9.053097870926884  C 4.259740894892768 9.442478302543726  4.051950402153073 9.831849798741013  3.844158314796558 10.123885129706423  C 3.6363662274400426 10.415920460671833  3.324676525011023 10.610622542021158  2.909092350297992 10.805312757829581  Z " fill-rule="nonzero" fill="#2c3b51" stroke="none" transform="matrix(1 0 0 1 1025 175 )" />
  </g>
</svg>