<?xml version="1.0" encoding="utf-8"?>
<svg version="1.1" xmlns:xlink="http://www.w3.org/1999/xlink" width="429px" height="264px" xmlns="http://www.w3.org/2000/svg">
  <g transform="matrix(1 0 0 1 -510 -384 )">
    <path d="M 429 16.279714584350586  C 429 16.279714584350586  428.9237365722656 247.7202911376953  428.9237365722656 247.7202911376953  C 428.9237365722656 256.6153955459595  427.08452320098877 264  419.2600402832031 264  C 419.2600402832031 264  15.663735389709474 264  15.663735389709474 264  C 6.559876441955566 264.0000000000009  0 259.7539987564087  0 247.7202911376953  C 0 247.7202911376953  0.07618220150470734 18.279714584350586  0.07618220150470734 18.279714584350586  C 0.07618220150470734 3.0141401290893555  4.729953765869141 0  13.739892959594725 0  C 13.739892959594725 0  416.3362121582031 0  416.3362121582031 0  C 426.2168970108032 0  429 7.216777801513672  429 16.279714584350586  Z " fill-rule="nonzero" fill="#f6f6f6" stroke="none" transform="matrix(1 0 0 1 510 384 )" />
  </g>
</svg>