<?xml version="1.0" encoding="utf-8"?>
<svg version="1.1" xmlns:xlink="http://www.w3.org/1999/xlink" width="4px" height="8px" xmlns="http://www.w3.org/2000/svg">
  <g transform="matrix(1 0 0 1 -1043 -175 )">
    <path d="M 1.4545435629606895 8  L 0 8  L 0 0.09639138963395466  L 1.3636358907401724 0.09639138963395466  L 1.3636358907401724 1.3494059185695717  C 1.3636358907401724 1.3494059185695717  1.4545435629606895 1.3494059185695717  1.4545435629606895 1.3494059185695717  C 1.5454526236980182 0.9638638859065831  1.818182569397122 0.5783218676061542  2.1818188123464366 0.38555085127465993  C 2.5454550552957516 0.19277983494316564  2.909087125921379 0  3.36363242283477 0  C 3.4545414835720987 0  3.545451926052986 0  3.7272700475276435 0  C 3.8181791082649723 0  3.909090939262671 0  4 0  C 4 0  4 1.4457826009423678  4 1.4457826009423678  C 3.909090939262671 1.4457826009423678  3.8181791082649723 1.445791426735319  3.7272700475276435 1.3494059185695717  C 3.545451926052986 1.3494059185695717  3.45454287208891 1.3494059185695717  3.2727247506142527 1.3494059185695717  C 2.9090885076649378 1.3494059185695717  2.63636134577271 1.4457884824105753  2.3636341567874712 1.5421739905763225  C 2.0909069678022325 1.734945006907817  1.9090916369077033 1.9277130645520075  1.727273515433046 2.216869596230529  C 1.5454553939583886 2.5060261279090503  1.4545435629606895 2.7951826308624526  1.4545435629606895 3.180724663525441  C 1.4545435629606895 3.180724663525441  1.4545435629606895 8  1.4545435629606895 8  Z " fill-rule="nonzero" fill="#2c3b51" stroke="none" transform="matrix(1 0 0 1 1043 175 )" />
  </g>
</svg>