<?xml version="1.0" encoding="utf-8"?>
<svg version="1.1" xmlns:xlink="http://www.w3.org/1999/xlink" width="7px" height="8px" xmlns="http://www.w3.org/2000/svg">
  <g transform="matrix(1 0 0 1 -1088 -175 )">
    <path d="M 5.196974601075513 5.78313040376947  C 5.196974601075572 5.493973872090949  5.303025398924487 5.108434798115264  5.303025398924487 4.626507264467809  C 5.303025398924487 4.626507264467809  5.303025398924487 0  5.303025398924487 0  L 7 0  L 7 7.903608610366046  L 5.409092380322654 7.903608610366046  L 5.409092380322654 6.554217399057633  C 5.409092380322654 6.554217399057633  5.303025398924487 6.554217399057633  5.303025398924487 6.554217399057633  C 5.090904379806658 6.9397594317206215  4.772729338773414 7.325292617046819  4.348487300537756 7.61444914872534  C 3.9242452623020982 7.903605680403861  3.3939427540181444 8  2.75757968086041 8  C 2.2272771409679613 8  1.6969810808168877 7.903611554690789  1.2727390425812297 7.710840538359294  C 0.848497004345572 7.5180695220278  0.5303057797631364 7.132527503727371  0.31818476064530743 6.746985471064383  C 0.10606374152747851 6.361443438401394  0 5.783133333731655  0 5.1084347981152645  C 0 5.1084347981152645  0 0.09639138963395466  0 0.09639138963395466  L 1.6969746010755125 0.09639138963395466  C 1.6969746010755125 0.09639138963395466  1.6969746010755125 4.915666726108514  1.6969746010755125 4.915666726108514  C 1.6969746010755125 5.493979789465556  1.909095604389094 5.879510016104452  2.2272771409679613 6.168666547782973  C 2.5454586775468284 6.457823079461494  2.969697460107551 6.6505940814304285  3.5 6.6505940814304285  C 3.8181815365788667 6.6505940814304285  4.136372745357056 6.554211517589424  4.4545542819359225 6.457826009423677  C 4.772735818514789 6.36144050125793  4.984853581957683 6.072286935447991  5.196974601075513 5.78313040376947  Z " fill-rule="nonzero" fill="#2c3b51" stroke="none" transform="matrix(1 0 0 1 1088 175 )" />
  </g>
</svg>