<?xml version="1.0" encoding="utf-8"?>
<svg version="1.1" xmlns:xlink="http://www.w3.org/1999/xlink" width="8px" height="11px" xmlns="http://www.w3.org/2000/svg">
  <g transform="matrix(1 0 0 1 -1004 -172 )">
    <path d="M 0 10.899091751569976  L 0 11  L 0 0  C 0 0  4.051951243195469 0  4.051951243195469 0  C 4.883120416168774 0  5.714287979041946 0.20183496337363616  6.233768704409395 0.5045874385098454  C 6.857145599621107 0.8073399136460547  7.272733313417633 1.2110129081203405  7.5844217610234885 1.8165178583927588  C 7.896110208629344 2.321105296902604  8 2.92659791611546  8 3.6330203179989415  C 8 4.339442719882423  7.896110208629344 4.944950737881855  7.5844217610234885 5.4495381763917  C 7.272733313417633 5.954125614901546  6.857145599621107 6.458716121138404  6.233768704409395 6.7614685962746135  C 5.610391809197685 7.064221071410822  4.883120416168774 7.266056034784459  4.051951243195469 7.266056034784459  C 4.051951243195469 7.266056034784459  1.2467545335465602 7.266056034784459  1.2467545335465602 7.266056034784459  L 1.2467545335465602 5.752293719254922  C 1.2467545335465602 5.752293719254922  3.844154197060403 5.752293719254922  3.844154197060403 5.752293719254922  C 4.363634922427853 5.752293719254922  4.883118806068641 5.651373154803214  5.1948072536744965 5.4495381763917  C 5.506495701280351 5.2477031979801865  5.818180951908539 5.045865151841659  5.922077098530202 4.642195195018632  C 6.025973245151865 4.238525238195606  6.129874144665267 3.9357820263919456  6.129874144665267 3.5321120695689183  C 6.129874144665267 3.128442112745891  6.025973245151865 2.724766020468837  5.922077098530202 2.4220135453326272  C 5.7142848052868755 2.1192610701964183  5.506495701280351 1.8165055423710734  5.1948072536744965 1.6146705639595598  C 4.883118806068641 1.4128355855480461  4.363634922427853 1.3119304198829131  3.844154197060403 1.3119304198829131  C 3.844154197060403 1.3119304198829131  1.6623367358464767 1.3119304198829131  1.6623367358464767 1.3119304198829131  L 1.6623367358464767 10.899091751569976  L 0 10.899091751569976  Z " fill-rule="nonzero" fill="#2c3b51" stroke="none" transform="matrix(1 0 0 1 1004 172 )" />
  </g>
</svg>