<?xml version="1.0" encoding="utf-8"?>
<svg version="1.1" xmlns:xlink="http://www.w3.org/1999/xlink" width="7px" height="8px" xmlns="http://www.w3.org/2000/svg">
  <g transform="matrix(1 0 0 1 -1017 -175 )">
    <path d="M 3.865673783254743 7.957390427703766  C 3.552241149125524 8.053262743962101  3.4477620268212887 7.957390427703766  2.925374324030413 7.957390427703766  C 2.4029866212395365 7.957390427703766  1.880597330475254 7.86152981889469  1.4626871620152064 7.669785186378021  C 1.0447769935551587 7.478040553861352  0.6268668406634779 7.190420697867407  0.4179117564334541 6.902803741949361  C 0.20895667220343028 6.5193144769160245  0 6.135816468796727  0 5.560582556960633  C 0 5.081220982812008  0.10448072584600818 4.793612827124276  0.313435810076032 4.50599587120623  C 0.5223908943060558 4.218378915288184  0.7313427714525332 4.026637225705678  1.0447754055817522 3.8348925931890103  C 1.3582080397109715 3.6431479606723425  1.6716406427034571 3.5472668727558703  2.0895508111635044 3.4513945564975357  C 2.507460979623552 3.3555222402392015  2.925377499977226 3.2596528526289434  3.2388101341064446 3.2596528526289434  C 3.7611978368973205 3.1637805363706093  4.179104798273822 3.163774686217502  4.492537432403042 3.163774686217502  C 4.80597006653226 3.163774686217502  5.014921943678737 3.067905298607244  5.223877027908761 2.97203298234891  C 5.328354570023773 2.8761606660905756  5.432836891627372 2.7802942071283923  5.432836891627372 2.5885495746117244  C 5.432836891627372 2.1091880004630985  5.328357769323136 1.821565215821077  5.014925135193918 1.5339482599030305  C 4.701492501064698 1.2463313039849842  4.388063105155759 1.1504648521658454  3.7611978368973205 1.1504648521658454  C 3.2388101341064446 1.1504648521658454  2.7164192553687556 1.2463313039849842  2.4029866212395365 1.5339482599030305  C 2.0895539871103175 1.821565215821077  1.8806005142062505 2.0133127484136444  1.7761229720912384 2.3009297043316908  C 1.7761229720912384 2.3009297043316908  0.20895986371860992 2.013309834051657  0.20895986371860992 2.013309834051657  C 0.4179149479486337 1.5339482599030305  0.6268652371217047 1.150461937803858  1.0447754055817522 0.8628449818858117  C 1.4626855740418 0.5752280259677655  1.7761229720912384 0.38348633638526086  2.298510674882115 0.19174170386859268  C 2.716420843342162 0.0958693876102586  3.2388101341064446 0  3.7611978368973205 0  C 4.07463047102654 0  4.492540608349854 0  4.805973242479073 0.09586353745715173  C 5.119405876608292 0.1917358537154858  5.537316013931607 0.2876169416319581  5.850748648060826 0.4793615741486263  C 6.164181282190045 0.6711062066652945  6.477609105693944 0.9587172910011017  6.686564189923969 1.342206556034438  C 6.895519274153992 1.7256958210677742  7 2.205057366644224  7 2.7802912784803167  C 7 2.7802912784803167  7 7.957390427703766  7 7.957390427703766  L 5.328360945269949 7.957390427703766  L 5.328360945269949 6.902803741949361  C 5.328360945269949 6.902803741949361  5.223877027908761 6.902803741949361  5.223877027908761 6.902803741949361  C 5.11939948579375 7.094548374466029  4.910444409347909 7.28628422103847  4.701489325117885 7.47802885355514  C 4.492534240887862 7.669773486071808  4.179106417383963 7.861518111445432  3.865673783254743 7.957390427703766  Z M 2.0895508111635044 6.423442167800735  C 2.507460979623552 6.615186800317403  2.820898377672991 6.711062038080769  3.343286080463867 6.711062038080769  C 3.7611962489239144 6.711062038080769  4.179104798273822 6.615186800317403  4.492537432403042 6.423442167800735  C 4.80597006653226 6.2316975352840664  5.11939948579375 6.039955845701561  5.223877027908761 5.752338889783515  C 5.432832112138786 5.464721933865469  5.432836891627372 5.177096234861461  5.432836891627372 4.889479278943415  C 5.432836891627372 4.889479278943415  5.432836891627372 3.8348925931890103  5.432836891627372 3.8348925931890103  C 5.328359349512359 3.930764909447345  5.2238786236663515 3.930761980799269  5.11940108155134 4.026634297057603  C 5.014923539436328 4.122506613315937  4.80597006653226 4.122497834514755  4.492537432403042 4.122497834514755  C 4.179104798273822 4.122497834514755  4.074628867484767 4.218376000926196  3.865673783254743 4.218376000926196  C 3.6567186990247196 4.218376000926196  3.447763622578879 4.218381851079303  3.343286080463867 4.314254167337637  C 3.0298534463346476 4.314254167337637  2.7164176518269825 4.410123554947896  2.507462567596959 4.50599587120623  C 2.298507483366935 4.601868187464564  1.9850764605636724 4.697734646426746  1.8805989184486602 4.889479278943415  C 1.6716438342186366 5.081223911460083  1.6716470257338163 5.272965601042587  1.6716470257338163 5.560582556960633  C 1.6716470257338163 5.94407182199397  1.7761181770342858 6.2316975352840664  2.0895508111635044 6.423442167800735  Z " fill-rule="nonzero" fill="#2c3b51" stroke="none" transform="matrix(1 0 0 1 1017 175 )" />
  </g>
</svg>