<?xml version="1.0" encoding="utf-8"?>
<svg version="1.1" xmlns:xlink="http://www.w3.org/1999/xlink" width="431px" height="264px" xmlns="http://www.w3.org/2000/svg">
  <g transform="matrix(1 0 0 1 -57 -384 )">
    <path d="M 431 16.279714584350586  C 431 16.279714584350586  430.92340087890625 247.7202911376953  430.92340087890625 247.7202911376953  C 430.92340087890625 256.6153964996338  426.2111177444458 264  417.639404296875 264  C 417.639404296875 264  13.889610290527342 264  13.889610290527342 264  C 3.3783683776855464 264  0 256.78322887420654  0 247.7202911376953  C 0 247.7202911376953  0.0765373632311821 16.279714584350586  0.0765373632311821 16.279714584350586  C 0.0765373632311821 7.384609222412109  4.061008453369141 0  14.966122627258303 0  C 14.966122627258303 0  417.7159118652344 0  417.7159118652344 0  C 427.40834045410156 0  431 7.2167768478393555  431 16.279714584350586  Z " fill-rule="nonzero" fill="#f6f6f6" stroke="none" transform="matrix(1 0 0 1 57 384 )" />
  </g>
</svg>