<?xml version="1.0" encoding="utf-8"?>
<svg version="1.1" xmlns:xlink="http://www.w3.org/1999/xlink" width="431px" height="264px" xmlns="http://www.w3.org/2000/svg">
  <g transform="matrix(1 0 0 1 -57 -100 )">
    <path d="M 431 16.279714584350586  C 431 16.279714584350586  430.92340087890625 247.72027587890625  430.92340087890625 247.72027587890625  C 430.92340087890625 256.6153802871704  426.2111177444458 264  417.639404296875 264  C 417.639404296875 264  10.889610290527344 264  10.889610290527344 264  C 6.833377361297607 264  0 256.78321266174316  0 247.72027587890625  C 0 247.72027587890625  0.0765373632311821 16.279714584350586  0.0765373632311821 16.279714584350586  C 0.0765373632311821 7.384610176086426  5.426287651062012 0  14.966122627258303 0  C 14.966122627258303 0  417.7159118652344 0  417.7159118652344 0  C 427.40834045410156 0  431 7.216777801513672  431 16.279714584350586  Z " fill-rule="nonzero" fill="#f6f6f6" stroke="none" transform="matrix(1 0 0 1 57 100 )" />
  </g>
</svg>