<?xml version="1.0" encoding="utf-8"?>
<svg version="1.1" xmlns:xlink="http://www.w3.org/1999/xlink" width="10px" height="11px" xmlns="http://www.w3.org/2000/svg">
  <g transform="matrix(1 0 0 1 -1062 -172 )">
    <path d="M 7.999991969064838 3.5357062573313733  C 7.999991969064838 3.5357062573313733  7.999991969064838 3.633926564332844  7.999991969064838 3.633926564332844  C 7.894728894137718 3.3392836151980987  7.7894722502328975 3.0446317093986672  7.5789461003786585 2.7499887602639226  C 7.3684199505244194 2.455345811129178  7.157887385333304 2.2589201980760807  6.947361235479065 2.0624915701979423  C 6.736835085624827 1.8660629423198034  6.421050699795613 1.767854628760671  6.105261467171545 1.6696403148216015  C 5.7894722345474765 1.5714260008825323  5.47368303329425 1.5714200078201315  5.052630733585772 1.5714200078201315  C 4.421052268337636 1.5714200078201315  3.789469034721748 1.7678486210631976  3.263153667928862 2.0624915701979423  C 2.736838301135976 2.357134519332687  2.3157892326240677 2.8482150383751836  2 3.437500936644673  C 1.6842107673759321 4.026786834914163  1.5789461003786587 4.812498302331529  1.5789461003786587 5.598212813844085  C 1.5789461003786587 6.482141602708027  1.6842107673759321 7.169638792774007  2 7.7589246910434975  C 2.3157892326240677 8.348210589312986  2.736838301135976 8.839276122040715  3.263153667928862 9.133919071175459  C 3.789469034721748 9.428562020310203  4.421052268337636 9.62499063355327  5.052630733585772 9.62499063355327  C 5.6842091988339085 9.62499063355327  6.21052293434309 9.526782327311674  6.736838301135975 9.23213937817693  C 7.157890600844453 9.03571075029879  7.57894288486751 8.642853509177586  7.789469034721748 8.249996253421306  C 7.999995184575987 7.8571389976650305  8.21052293434309 7.267847157555896  8.21052293434309 6.678561259286406  C 8.21052293434309 6.678561259286406  8.63157683396443 6.776781566287877  8.63157683396443 6.776781566287877  L 5.368415135100407 6.776781566287877  L 5.368415135100407 5.401787186155915  L 9.894730501893292 5.401787186155915  C 9.894730501893292 5.401787186155915  9.894730501893292 6.580355938599707  9.894730501893292 6.580355938599707  C 9.894730501893292 7.464284727463648  9.68420596763734 8.249993267866413  9.263153667928862 8.93749344348729  C 8.842101368220385 9.624993619108164  8.315787601340363 10.11607118186591  7.5789461003786585 10.508928437622188  C 6.842104599416954 10.901785693378468  5.999996800174271 11  5.157892200757317 11  C 4.105261467171545 11  3.1578954005830457 10.80357437231183  2.4210538996213415 10.312502809934019  C 1.684212398659637 9.821431247556209  1.0526291336729081 9.232136392622031  0.631576833964431 8.446421881109478  C 0.21052453425595394 7.660707369596923  0 6.678564303381594  0 5.499992506842616  C 0 4.616063717978673  0.10526466699727349 3.8303462209112227  0.42105389962134143 3.2410603226417334  C 0.6315800494755799 2.5535601470208573  1.0526323334986367 1.9642862495112419  1.4736846332071138 1.4732146871334315  C 1.8947369329155908 0.9821431247556209  2.5263137355091816 0.5892798832544793  3.1578922007573174 0.39285125537634047  C 3.7894706660054527 0.09820830624159575  4.421049068511908 0  5.2631536679288615 0  C 5.894732133176998 0  6.421045868686179 0.09820232049673161  6.947361235479065 0.2946309483748704  C 7.473676602271952 0.4910595762530092  7.999993568977702 0.6875001756208762  8.421045868686178 0.9821431247556209  C 8.842098168394656 1.2767860738903656  9.157887369647884 1.6696343144416645  9.473676602271953 2.0624915701979423  C 9.789465834896019 2.45534882595422  9.89473692507288 2.946420359061884  10 3.5357062573313733  C 10 3.5357062573313733  7.999991969064838 3.5357062573313733  7.999991969064838 3.5357062573313733  Z " fill-rule="nonzero" fill="#2c3b51" stroke="none" transform="matrix(1 0 0 1 1062 172 )" />
  </g>
</svg>