<svg width="36" height="36" viewBox="0 0 36 36" fill="none" xmlns="http://www.w3.org/2000/svg">
<path d="M31.1987 0H4.80125C2.14959 0 0 2.14959 0 4.80125V31.1987C0 33.8504 2.14959 36 4.80125 36H31.1987C33.8504 36 36 33.8504 36 31.1987V4.80125C36 2.14959 33.8504 0 31.1987 0Z" fill="#E2BB52"/>
<path d="M24.2127 9.6682V7.26758H11.7876V9.65883H18.0986C18.7931 9.6408 19.4668 9.89681 19.9741 10.3715C20.44 10.8223 20.749 11.4106 20.8556 12.0501H11.7876V14.4507H20.7337C20.5841 14.9338 20.3166 15.3721 19.9554 15.726C19.6909 15.9663 19.3817 16.152 19.0454 16.2727C18.7091 16.3934 18.3523 16.4466 17.9955 16.4293H12.369L12.3034 17.564C12.2283 19.0456 12.2283 24.1282 15.5855 27.7104C16.6128 28.7583 17.8494 29.5779 19.2147 30.116C20.58 30.654 22.0434 30.8983 23.5094 30.8331V28.4512C22.3708 28.5089 21.2327 28.3277 20.1684 27.9191C19.1041 27.5105 18.1371 26.8836 17.3297 26.0787C15.629 24.0533 14.696 21.4935 14.6946 18.8487H17.8829C18.5561 18.8868 19.2299 18.7876 19.8635 18.5571C20.497 18.3266 21.0771 17.9695 21.5683 17.5077C22.429 16.7001 23.002 15.6331 23.1999 14.4695H24.2033V12.0688H23.2656C23.1634 11.2179 22.8787 10.399 22.431 9.6682H24.2127Z" fill="#2B3B51"/>
</svg>
