<svg width="36" height="36" viewBox="0 0 36 36" fill="none" xmlns="http://www.w3.org/2000/svg">
<path d="M30.5285 0H4.13852C1.48478 0 -0.666504 2.15128 -0.666504 4.80502V31.195C-0.666504 33.8487 1.48478 36 4.13852 36H30.5285C33.1822 36 35.3335 33.8487 35.3335 31.195V4.80502C35.3335 2.15128 33.1822 0 30.5285 0Z" fill="#2E9260"/>
<path fill-rule="evenodd" clip-rule="evenodd" d="M17.3381 4.76709C16.2909 4.76709 15.2672 5.07763 14.3964 5.65945C13.5257 6.24127 12.847 7.06822 12.4462 8.03575C12.0455 9.00327 11.9406 10.0679 12.1449 11.095C12.3492 12.1222 12.8535 13.0656 13.594 13.8061C14.3345 14.5466 15.278 15.0509 16.3051 15.2552C17.3322 15.4596 18.3969 15.3547 19.3644 14.9539C20.3319 14.5532 21.1589 13.8745 21.7407 13.0038C22.3225 12.133 22.6331 11.1093 22.6331 10.062C22.6331 9.3667 22.4961 8.67816 22.23 8.03575C21.9639 7.39334 21.5739 6.80963 21.0822 6.31794C20.5905 5.82626 20.0068 5.43624 19.3644 5.17014C18.722 4.90405 18.0335 4.76709 17.3381 4.76709ZM28.564 20.5953C27.9998 20.9743 27.3358 21.1775 26.6561 21.1794C26.2037 21.1806 25.7555 21.0926 25.3372 20.9203C24.9188 20.7481 24.5386 20.4949 24.2183 20.1755C23.898 19.856 23.6438 19.4765 23.4704 19.0587C23.297 18.6408 23.2078 18.1929 23.2078 17.7405C23.2078 17.0607 23.4092 16.3962 23.7867 15.8309C24.1641 15.2656 24.7006 14.8248 25.3285 14.5643C25.9563 14.3037 26.6473 14.2351 27.3141 14.367C27.9809 14.4989 28.5937 14.8255 29.075 15.3055C29.5563 15.7855 29.8846 16.3974 30.0183 17.0638C30.1521 17.7303 30.0853 18.4214 29.8265 19.05C29.5676 19.6785 29.1283 20.2163 28.564 20.5953ZM26.6561 21.1794C27.5681 21.1794 28.4428 21.5417 29.0877 22.1866C29.7326 22.8315 30.095 23.7062 30.095 24.6183V30.7046H23.2172V24.6183C23.2172 23.7062 23.5795 22.8315 24.2244 22.1866C24.8693 21.5417 25.744 21.1794 26.6561 21.1794ZM13.594 16.9079C14.587 15.9149 15.9338 15.357 17.3381 15.357C18.7408 15.3595 20.0852 15.9185 21.0761 16.9112C22.0671 17.904 22.6236 19.2493 22.6236 20.652V30.7143H12.0432V20.652C12.0432 19.2477 12.601 17.9009 13.594 16.9079ZM10.9221 12.6482C11.3011 13.2124 11.5044 13.8764 11.5062 14.5561C11.5062 15.4674 11.1455 16.3417 10.5029 16.9878C9.86028 17.634 8.98802 17.9995 8.07674 18.0044C8.5279 18.0044 8.97463 18.0935 9.39132 18.2664C9.80802 18.4393 10.1865 18.6928 10.5051 19.0122C10.8237 19.3317 11.0761 19.7109 11.2479 20.128C11.4197 20.5452 11.5075 20.9922 11.5062 21.4433V30.7048H4.62843V21.4433C4.62719 20.9914 4.71529 20.5436 4.88767 20.1259C5.06005 19.7081 5.31331 19.3285 5.63289 19.0089C5.95246 18.6893 6.33206 18.4361 6.74985 18.2637C7.16763 18.0913 7.61537 18.0032 8.06732 18.0044C7.38758 18.0044 6.72308 17.803 6.15776 17.4255C5.59244 17.0481 5.15167 16.5115 4.89111 15.8837C4.63056 15.2559 4.56191 14.5649 4.69384 13.8981C4.82576 13.2313 5.15235 12.6185 5.63235 12.1372C6.11234 11.6559 6.72421 11.3276 7.39067 11.1939C8.05713 11.0601 8.74828 11.1269 9.37681 11.3857C10.0054 11.6446 10.5431 12.0839 10.9221 12.6482Z" fill="white"/>
</svg>
