<svg width="36" height="36" viewBox="0 0 36 36" fill="none" xmlns="http://www.w3.org/2000/svg">
<path d="M30.8657 0H4.46824C1.81659 0 -0.333008 2.11974 -0.333008 4.73457V30.7654C-0.333008 33.3803 1.81659 35.5 4.46824 35.5H30.8657C33.5174 35.5 35.667 33.3803 35.667 30.7654V4.73457C35.667 2.11974 33.5174 0 30.8657 0Z" fill="#DB4E79"/>
<path d="M28.8498 18.1245C28.8498 15.3503 25.1926 13.0755 20.2788 12.4559C20.2834 12.4005 20.2834 12.3449 20.2788 12.2895C20.2799 11.6822 20.0645 11.0938 19.6702 10.6273C19.276 10.1607 18.7279 9.84569 18.122 9.73725V6.26955H20.2975V4.32764H17.203V9.73725C16.5961 9.84546 16.047 10.1601 15.6512 10.6265C15.2553 11.0928 15.0379 11.6813 15.0368 12.2895C15.0322 12.3449 15.0322 12.4005 15.0368 12.4559C10.123 13.0755 6.4752 15.378 6.46582 18.1245V29.1471H28.8498V18.1245ZM25.5583 27.3162C25.1551 27.2145 24.7049 27.1312 24.2455 27.0573V18.1245H25.5583V27.3162ZM16.3496 26.5764C15.4119 26.5764 14.5586 26.6504 13.724 26.7244V18.1245H16.3496V26.5764ZM18.9847 18.1245H21.6104V26.7244C20.7758 26.6504 19.9037 26.6041 18.9847 26.5764V18.1245ZM11.0889 18.1245V27.0573C10.6294 27.1312 10.1512 27.2237 9.77606 27.3162V18.1245H11.0889Z" fill="#2B3B51"/>
</svg>
