<svg width="36" height="36" viewBox="0 0 36 36" fill="none" xmlns="http://www.w3.org/2000/svg">
<path d="M31.1992 0H4.80174C2.15008 0 0.000488281 2.14959 0.000488281 4.80125V31.1987C0.000488281 33.8504 2.15008 36 4.80174 36H31.1992C33.8509 36 36.0005 33.8504 36.0005 31.1987V4.80125C36.0005 2.14959 33.8509 0 31.1992 0Z" fill="#238BCC"/>
<path fill-rule="evenodd" clip-rule="evenodd" d="M13.1386 6.77969C14.4294 5.48887 16.1801 4.7637 18.0056 4.7637C18.9111 4.76123 19.8081 4.93744 20.6454 5.28225C21.4826 5.62705 22.2436 6.13366 22.8848 6.77305C23.5259 7.41245 24.0346 8.17206 24.3817 9.00837C24.7287 9.84469 24.9074 10.7413 24.9074 11.6467C24.9049 12.0684 24.8641 12.489 24.7855 12.9033C24.2041 12.1906 21.4002 11.6467 18.0244 11.6467C14.6485 11.6467 11.8352 12.1906 11.2538 12.9033C11.1721 12.4893 11.1281 12.0687 11.1226 11.6467C11.1226 9.82124 11.8477 8.07051 13.1386 6.77969ZM12.6942 16.0323C12.1061 15.3218 11.6672 14.5 11.4038 13.6161C12.2478 14.2444 14.9485 14.7039 18.0337 14.7039C21.1188 14.7039 23.7539 14.2444 24.5979 13.6161C24.3325 14.4991 23.8929 15.32 23.305 16.0303C22.7172 16.7405 21.9929 17.3258 21.1751 17.7516V31.0019H14.8266V17.7516C14.0075 17.3276 13.2822 16.7428 12.6942 16.0323Z" fill="white"/>
</svg>
