<?xml version="1.0" encoding="utf-8"?>
<svg version="1.1" xmlns:xlink="http://www.w3.org/1999/xlink" width="23px" height="25px" xmlns="http://www.w3.org/2000/svg">
  <g transform="matrix(1 0 0 1 -961 -164 )">
    <path d="M 0.6900421142578125 12.500018884657047  C 6.670041894912721 12.8713063646818  11.5 18.316825507090805  11.5 24.999999999999996  C 11.5 24.999999999999996  11.5 24.257455284909042  11.5 24.257455284909042  C 11.845000013709068 17.698043162394452  16.904999780654908 12.500018884657047  23 12.500018884657047  C 23 12.500018884657047  22.310028076171875 12.500018884657047  22.310028076171875 12.500018884657047  C 16.215027856826783 12.12873140463229  11.5 6.683174492909188  11.5 0  C 11.5 0  11.5 0.7425635997480031  11.5 0.7425635997480031  C 11.154999986290932 7.3019757222625925  6.095000219345093 12.500018884657047  0 12.500018884657047  C 0 12.500018884657047  0.6900421142578125 12.500018884657047  0.6900421142578125 12.500018884657047  Z " fill-rule="nonzero" fill="#466da1" stroke="none" transform="matrix(1 0 0 1 961 164 )" />
  </g>
</svg>