<?xml version="1.0" encoding="utf-8"?>
<svg version="1.1" xmlns:xlink="http://www.w3.org/1999/xlink" width="6px" height="18px" xmlns="http://www.w3.org/2000/svg">
  <g transform="matrix(1 0 0 1 -61 -654 )">
    <path d="M 3.034512930887921 18  L 0 18  L 2.1459538090728634 5.140464508000535  L 5.180466505461298 5.140464508000535  L 3.034512930887921 18  Z M 5.381649711702424 2.813021925095727  C 5.012813911760189 3.136743360193659  4.5880938357510885 3.2986040777426253  4.107489718174609 3.2986040777426253  C 3.621297008841803 3.2986040777426253  3.218930596359552 3.136743360193659  2.900390480727855 2.813021925095727  C 2.5818505995956444 2.489301426816455  2.442140261177711 2.1013947980749834  2.481259230974568 1.6493020388713127  C 2.5203782007714253 1.197208342848982  2.724355468391228 0.8093012456981807  3.093191268333463 0.48558074741890844  C 3.4676154255325384 0.16186024913963615  3.895129797419802 0  4.375734149495767 0  C 4.8619266243290875 0  5.261498506433689 0.16186024913963615  5.574450030309059 0.48558074741890844  C 5.892990380440242 0.8093012456981807  6.032700953357661 1.197208342848982  5.993581749061319 1.6493020388713127  C 5.960051136521302 2.1013947980749834  5.756073868901499 2.489301426816455  5.381649711702424 2.813021925095727  Z " fill-rule="nonzero" fill="#ffffff" stroke="none" transform="matrix(1 0 0 1 61 654 )" />
  </g>
</svg>